<svg width="168" height="41" viewBox="0 0 168 41" fill="none" xmlns="http://www.w3.org/2000/svg">
<path d="M91.1677 3.42618C90.3643 3.6799 89.7723 4.0182 89.3494 4.48335C88.9265 4.9485 88.6305 5.45595 88.546 6.04796C88.4191 6.63997 88.3768 7.824 88.3768 9.55776H86.8545V13.7864H88.3768V35.5641H95.8192V13.7864H97.5953V9.55776H94.4661V8.71202C94.4661 7.99315 94.5929 7.57028 94.8889 7.40113C95.185 7.23199 96.073 7.1897 97.5953 7.1897V3.08789H94.8467C93.1552 3.08789 91.9289 3.21475 91.1677 3.42618Z" fill="#97BB3A"/>
<path d="M106.686 3.08789H98.9902V7.31656H106.686V3.08789Z" fill="#97BB3A"/>
<path d="M106.686 8.96533H98.9902V35.606H106.686V8.96533Z" fill="#97BB3A"/>
<path d="M117.217 28.0788V13.8281H119.246V9.59947H117.217V5.41309H109.732V9.59947H108.125V13.8281H109.732V27.3599C109.732 30.0239 109.816 31.6731 109.943 32.392C110.07 33.1109 110.408 33.7452 110.958 34.2949C111.508 34.8446 112.142 35.2252 112.861 35.3521C113.58 35.5212 114.806 35.5635 116.498 35.5635H119.5V31.2925C118.274 31.2925 117.597 31.208 117.428 30.9965C117.301 30.7851 117.217 29.8125 117.217 28.0788Z" fill="#97BB3A"/>
<path d="M9.64134 18.3953V16.4501C9.64134 15.0546 9.55677 14.1666 9.42991 13.786C9.30305 13.4055 9.00704 13.194 8.58418 13.194C8.07674 13.194 7.73845 13.3632 7.61159 13.7015C7.48473 14.0398 7.44244 14.9701 7.44244 16.4501V18.3953H9.64134V18.3953ZM17.1261 22.7508H7.48473V28.5018C7.48473 29.6858 7.5693 30.4893 7.73845 30.8276C7.90759 31.1659 8.2036 31.335 8.66875 31.335C9.21848 31.335 9.59905 31.1236 9.81049 30.6584C10.0219 30.1933 10.1065 29.3053 10.1065 27.9944V24.4846H17.1684V26.472C17.1684 28.1212 17.0838 29.3898 16.8723 30.2779C16.6609 31.1659 16.238 32.0962 15.5192 33.1111C14.8003 34.1259 13.9123 34.8871 12.8551 35.3523C11.798 35.8597 10.4448 36.1134 8.79561 36.1134C7.23101 36.1134 5.83555 35.8597 4.60924 35.3523C3.38292 34.8448 2.45262 34.1682 1.77604 33.3225C1.09945 32.4768 0.634296 31.5042 0.380577 30.4893C0.126857 29.4321 0 27.9521 0 25.9646V18.1839C0 15.8581 0.296002 13.9975 0.888015 12.6866C1.48003 11.3334 2.41034 10.3185 3.72122 9.59965C5.03211 8.88077 6.55442 8.54248 8.24588 8.54248C10.3179 8.54248 12.0517 8.96535 13.4048 9.85337C14.758 10.6991 15.7306 11.8408 16.2803 13.2786C16.8301 14.7163 17.0838 16.7038 17.0838 19.2833V22.7508H17.1261Z" fill="#77797A"/>
<path d="M28.7151 22.9198C27.5311 23.8501 26.8122 24.6535 26.643 25.3301C26.4316 25.9644 26.347 26.8947 26.347 28.121C26.347 29.5165 26.4316 30.4045 26.6007 30.7851C26.7699 31.1657 27.1082 31.3771 27.5733 31.3771C28.0385 31.3771 28.3345 31.208 28.5036 30.912C28.6305 30.6159 28.7151 29.7702 28.7151 28.417V22.9198V22.9198ZM26.347 19.2831H19.3274V17.5071C19.3274 15.435 19.5389 13.8704 20.004 12.7287C20.4269 11.6292 21.3149 10.6143 22.6258 9.7686C23.9367 8.92287 25.6704 8.5 27.7425 8.5C30.2797 8.5 32.1826 8.96515 33.4512 9.93775C34.7198 10.9103 35.4809 12.0944 35.7769 13.5321C36.0306 14.9276 36.1575 17.8454 36.1575 22.2432V35.6058H28.8842V33.2377C28.4191 34.2103 27.827 34.8869 27.1082 35.3943C26.3893 35.8595 25.5436 36.1132 24.5287 36.1132C23.2178 36.1132 22.0338 35.7326 20.9343 34.9292C19.8349 34.1257 19.2852 32.392 19.2852 29.6856V27.4867C19.2852 25.4993 19.5812 24.1461 20.1732 23.4272C20.7652 22.7083 22.2029 21.8626 24.4864 20.89C26.939 19.8328 28.2499 19.1562 28.4191 18.7757C28.5882 18.3951 28.6728 17.6762 28.6728 16.5768C28.6728 15.1813 28.5882 14.2933 28.3768 13.8704C28.1653 13.4475 27.8693 13.2361 27.4465 13.2361C26.939 13.2361 26.643 13.4053 26.5162 13.7858C26.3893 14.1241 26.347 15.0544 26.347 16.5345V19.2831V19.2831Z" fill="#77797A"/>
<path d="M48.211 16.0273C48.211 14.801 48.1264 14.0399 47.9995 13.7016C47.8727 13.3633 47.5767 13.1941 47.1538 13.1941C46.7309 13.1941 46.4349 13.4056 46.2235 13.7861C46.0544 14.1667 45.9698 14.9279 45.9698 16.0273V24.9498C45.9698 26.1339 46.0544 26.895 46.1812 27.2756C46.3081 27.6139 46.6041 27.8253 47.027 27.8253C47.5344 27.8253 47.8304 27.6139 47.9995 27.191C48.1264 26.7682 48.211 25.7956 48.211 24.2732V16.0273ZM55.6957 8.96545V29.4745C55.6957 32.2654 55.6534 34.0415 55.5266 34.8449C55.3997 35.6484 54.9768 36.4941 54.3003 37.4244C53.5814 38.3124 52.6088 39.0313 51.2979 39.4964C50.0293 39.9616 48.4224 40.2153 46.4772 40.2153C44.1092 40.2153 42.2063 39.7925 40.7685 38.9044C39.3308 38.0164 38.5696 36.3249 38.5273 33.7455H45.7584C45.7584 34.9295 46.1389 35.5215 46.9424 35.5215C47.4921 35.5215 47.8727 35.3524 48.0841 34.9718C48.2533 34.5912 48.3801 33.8723 48.3801 32.6883V30.6585C47.7458 31.2928 47.0692 31.758 46.3504 32.0963C45.6315 32.4346 44.9126 32.5614 44.1092 32.5614C42.756 32.5614 41.6565 32.2654 40.8108 31.6734C39.9651 31.0814 39.3308 30.3202 39.0348 29.3476C38.6965 28.375 38.5696 27.0219 38.5696 25.2458V15.5622C38.5696 13.025 38.9925 11.2066 39.8382 10.1072C40.684 9.00773 41.9526 8.45801 43.644 8.45801C44.5743 8.45801 45.4201 8.66944 46.1812 9.09231C46.9424 9.51518 47.619 10.1495 48.2533 10.9529L48.803 8.92316H55.6957V8.96545Z" fill="#77797A"/>
<path d="M66.0507 3.08691H58.3545V35.6054H66.0507V3.08691Z" fill="#77797A"/>
<path d="M78.1433 18.3953V16.4501C78.1433 15.0546 78.0587 14.1666 77.9319 13.786C77.805 13.4055 77.509 13.194 77.0861 13.194C76.5787 13.194 76.2404 13.3632 76.1135 13.7015C75.9867 14.0398 75.9444 14.9701 75.9444 16.4501V18.3953H78.1433V18.3953ZM85.628 22.7508H75.9867V28.5018C75.9867 29.6858 76.0713 30.4893 76.2404 30.8276C76.4096 31.1659 76.7056 31.335 77.1707 31.335C77.7204 31.335 78.101 31.1236 78.3124 30.6584C78.5239 30.1933 78.6085 29.3053 78.6085 27.9944V24.4846H85.6703V26.472C85.6703 28.1212 85.5857 29.3898 85.3743 30.2779C85.1629 31.1659 84.74 32.0962 84.0211 33.1111C83.3023 34.1259 82.4143 34.8871 81.3571 35.3523C80.2999 35.8597 78.9467 36.1134 77.2976 36.1134C75.733 36.1134 74.3375 35.8597 73.1112 35.3523C71.8849 34.8448 70.9546 34.1682 70.278 33.3225C69.6014 32.4768 69.1363 31.5042 68.8825 30.4893C68.6288 29.4321 68.502 27.9521 68.502 25.9646V18.1839C68.502 15.8581 68.798 13.9975 69.39 12.6866C69.982 11.3334 70.9123 10.3185 72.2232 9.59965C73.5341 8.88077 75.0564 8.54248 76.7478 8.54248C78.8199 8.54248 80.5536 8.96535 81.9068 9.85337C83.26 10.6991 84.2326 11.8408 84.7823 13.2786C85.332 14.7163 85.5857 16.7038 85.5857 19.2833V22.7508H85.628Z" fill="#77797A"/>
<path d="M121.111 3.25608H121.661C121.957 3.25608 122.126 3.21379 122.253 3.12922C122.379 3.04464 122.422 2.91778 122.422 2.74864C122.422 2.57949 122.379 2.45263 122.253 2.36805C122.126 2.28348 121.957 2.2412 121.703 2.2412H121.069V3.25608H121.111ZM120.434 5.37041V1.69147H122.041C122.422 1.69147 122.718 1.77604 122.929 1.98747C123.098 2.19891 123.183 2.45263 123.183 2.74864C123.183 3.04464 123.098 3.25608 122.971 3.42522C122.802 3.59437 122.591 3.72123 122.295 3.76352C122.422 3.8058 122.549 3.89038 122.633 4.01724C122.718 4.10181 122.845 4.31324 123.014 4.65154L123.394 5.4127H122.549L122.253 4.82069C122.083 4.48239 121.914 4.22867 121.787 4.10181C121.661 3.97495 121.491 3.89038 121.28 3.89038H121.111V5.4127H120.434V5.37041ZM121.914 0.676587C121.111 0.676587 120.477 0.972594 120.011 1.52232C119.504 2.07205 119.293 2.74863 119.293 3.46751C119.293 4.22867 119.546 4.90526 120.054 5.45499C120.561 6.00471 121.153 6.25843 121.872 6.25843C122.591 6.25843 123.183 6.00471 123.69 5.45499C124.198 4.90526 124.451 4.22867 124.451 3.46751C124.451 2.91778 124.325 2.45263 124.071 1.98747C123.817 1.52232 123.479 1.18403 123.098 0.972596C122.675 0.803449 122.295 0.676587 121.914 0.676587ZM121.787 0C122.76 0 123.521 0.338294 124.155 1.05717C124.79 1.73375 125.086 2.57949 125.086 3.5098C125.086 4.48239 124.79 5.28584 124.155 5.96243C123.521 6.63902 122.76 6.97731 121.872 6.97731C120.984 6.97731 120.223 6.63902 119.589 5.96243C118.954 5.28584 118.658 4.44011 118.658 3.5098C118.658 2.83321 118.827 2.19891 119.166 1.64918C119.504 1.09946 119.927 0.676587 120.392 0.422867C120.857 0.12686 121.322 0 121.787 0Z" fill="#77797A"/>
<rect x="135.937" y="3.7124" width="31.9115" height="31.9116" fill="#C43C2C"/>
<rect x="161.448" y="17.4702" width="5.57779" height="19.5222" transform="rotate(90 161.448 17.4702)" fill="white"/>
<rect x="148.952" y="10.498" width="5.52655" height="19.1695" transform="rotate(0.155249 148.952 10.498)" fill="white"/>
</svg>
